<mxfile host="app.diagrams.net" agent="Mozilla/5.0 (Windows NT 10.0; Win64; x64) AppleWebKit/537.36 (KHTML, like Gecko) Chrome/129.0.0.0 Safari/537.36" version="24.7.16">
  <diagram name="Page-1" id="pgbXk4H3pnyw2PNefUh2">
    <mxGraphModel dx="794" dy="412" grid="1" gridSize="10" guides="1" tooltips="1" connect="1" arrows="1" fold="1" page="1" pageScale="1" pageWidth="827" pageHeight="1169" math="0" shadow="0">
      <root>
        <mxCell id="0" />
        <mxCell id="1" parent="0" />
        <mxCell id="SZJOYQUlrXLaByPK2gH0-3" value="" style="edgeStyle=orthogonalEdgeStyle;rounded=0;orthogonalLoop=1;jettySize=auto;html=1;" edge="1" parent="1" source="SZJOYQUlrXLaByPK2gH0-1" target="SZJOYQUlrXLaByPK2gH0-2">
          <mxGeometry relative="1" as="geometry" />
        </mxCell>
        <mxCell id="SZJOYQUlrXLaByPK2gH0-1" value="Inicio" style="ellipse;whiteSpace=wrap;html=1;aspect=fixed;" vertex="1" parent="1">
          <mxGeometry x="370" y="180" width="80" height="80" as="geometry" />
        </mxCell>
        <mxCell id="SZJOYQUlrXLaByPK2gH0-5" value="" style="edgeStyle=orthogonalEdgeStyle;rounded=0;orthogonalLoop=1;jettySize=auto;html=1;" edge="1" parent="1" source="SZJOYQUlrXLaByPK2gH0-2" target="SZJOYQUlrXLaByPK2gH0-8">
          <mxGeometry relative="1" as="geometry">
            <mxPoint x="410" y="410" as="targetPoint" />
          </mxGeometry>
        </mxCell>
        <mxCell id="SZJOYQUlrXLaByPK2gH0-2" value="Leer X1,X2,Y1,Y2" style="whiteSpace=wrap;html=1;" vertex="1" parent="1">
          <mxGeometry x="350" y="300" width="120" height="60" as="geometry" />
        </mxCell>
        <mxCell id="SZJOYQUlrXLaByPK2gH0-11" value="" style="edgeStyle=orthogonalEdgeStyle;rounded=0;orthogonalLoop=1;jettySize=auto;html=1;" edge="1" parent="1" source="SZJOYQUlrXLaByPK2gH0-7" target="SZJOYQUlrXLaByPK2gH0-10">
          <mxGeometry relative="1" as="geometry" />
        </mxCell>
        <mxCell id="SZJOYQUlrXLaByPK2gH0-15" value="" style="edgeStyle=orthogonalEdgeStyle;rounded=0;orthogonalLoop=1;jettySize=auto;html=1;" edge="1" parent="1" source="SZJOYQUlrXLaByPK2gH0-7" target="SZJOYQUlrXLaByPK2gH0-14">
          <mxGeometry relative="1" as="geometry" />
        </mxCell>
        <mxCell id="SZJOYQUlrXLaByPK2gH0-7" value="Y&amp;lt;&amp;gt; 0&amp;nbsp;" style="rhombus;whiteSpace=wrap;html=1;" vertex="1" parent="1">
          <mxGeometry x="370" y="530" width="80" height="80" as="geometry" />
        </mxCell>
        <mxCell id="SZJOYQUlrXLaByPK2gH0-9" value="" style="edgeStyle=orthogonalEdgeStyle;rounded=0;orthogonalLoop=1;jettySize=auto;html=1;" edge="1" parent="1" source="SZJOYQUlrXLaByPK2gH0-8" target="SZJOYQUlrXLaByPK2gH0-7">
          <mxGeometry relative="1" as="geometry" />
        </mxCell>
        <mxCell id="SZJOYQUlrXLaByPK2gH0-8" value="Calcular&amp;nbsp; Y=Y2-Y1" style="rounded=0;whiteSpace=wrap;html=1;" vertex="1" parent="1">
          <mxGeometry x="350" y="430" width="120" height="60" as="geometry" />
        </mxCell>
        <mxCell id="SZJOYQUlrXLaByPK2gH0-13" value="" style="edgeStyle=orthogonalEdgeStyle;rounded=0;orthogonalLoop=1;jettySize=auto;html=1;" edge="1" parent="1" source="SZJOYQUlrXLaByPK2gH0-10" target="SZJOYQUlrXLaByPK2gH0-12">
          <mxGeometry relative="1" as="geometry" />
        </mxCell>
        <mxCell id="SZJOYQUlrXLaByPK2gH0-10" value="Calcular&amp;nbsp; X=X2-X1" style="whiteSpace=wrap;html=1;" vertex="1" parent="1">
          <mxGeometry x="350" y="660" width="120" height="60" as="geometry" />
        </mxCell>
        <mxCell id="SZJOYQUlrXLaByPK2gH0-19" value="" style="edgeStyle=orthogonalEdgeStyle;rounded=0;orthogonalLoop=1;jettySize=auto;html=1;" edge="1" parent="1" source="SZJOYQUlrXLaByPK2gH0-12" target="SZJOYQUlrXLaByPK2gH0-18">
          <mxGeometry relative="1" as="geometry" />
        </mxCell>
        <mxCell id="SZJOYQUlrXLaByPK2gH0-12" value="pendiente = X/Y" style="whiteSpace=wrap;html=1;" vertex="1" parent="1">
          <mxGeometry x="350" y="770" width="120" height="60" as="geometry" />
        </mxCell>
        <mxCell id="SZJOYQUlrXLaByPK2gH0-14" value="Mostrar mensaje de error Y no puede ser cero&amp;nbsp;" style="whiteSpace=wrap;html=1;" vertex="1" parent="1">
          <mxGeometry x="510" y="540" width="120" height="60" as="geometry" />
        </mxCell>
        <mxCell id="SZJOYQUlrXLaByPK2gH0-16" value="No" style="text;html=1;align=center;verticalAlign=middle;whiteSpace=wrap;rounded=0;" vertex="1" parent="1">
          <mxGeometry x="440" y="530" width="60" height="30" as="geometry" />
        </mxCell>
        <mxCell id="SZJOYQUlrXLaByPK2gH0-17" value="Si" style="text;html=1;align=center;verticalAlign=middle;whiteSpace=wrap;rounded=0;" vertex="1" parent="1">
          <mxGeometry x="420" y="610" width="60" height="30" as="geometry" />
        </mxCell>
        <mxCell id="SZJOYQUlrXLaByPK2gH0-18" value="mostrar pendiente&amp;nbsp;" style="whiteSpace=wrap;html=1;" vertex="1" parent="1">
          <mxGeometry x="350" y="910" width="120" height="60" as="geometry" />
        </mxCell>
      </root>
    </mxGraphModel>
  </diagram>
</mxfile>
